/* XPM */
static const char *dep3_32x32_xpm[] = {
/* columns rows colors chars-per-pixel */
"32 32 54 1",
"d c #247800",
"5 c Black",
"c c #499429",
"+ c #FF6B01",
"; c #FF5A5A",
"  c None",
"> c #FFFCFA",
"y c #4C952D",
"m c #F8FBF7",
"* c #FFF6F0",
"v c #B3D2A6",
"% c #FF7614",
"@ c #FF6A00",
"6 c #3F3F3F",
"r c #B4D3A7",
"& c #FFA86A",
"1 c #FFF8F8",
", c #B3825F",
"0 c #FF8282",
"i c #4A942B",
"j c #2D8308",
"f c #2D8309",
"p c #EAF2E6",
": c #FF0C0C",
"u c #267F00",
"7 c #B45D5D",
"l c #6FAA55",
"q c #F9FBF8",
"O c #FFD4B5",
"s c #6FAA56",
"8 c #FFA8A8",
"3 c #FF0000",
"x c #4B952C",
"9 c #7C0000",
"h c #247900",
"z c #EBF3E8",
"k c #72AB59",
"2 c #FF2C2C",
"b c #94C081",
"e c #94C082",
"o c #FF6C03",
"$ c #FF6C04",
"t c #ECF4E9",
"n c #B2D2A5",
"a c #73AC5A",
"< c #7C3400",
"- c #FFE8E8",
"w c #B5D3A8",
"# c #FF8935",
"= c #FF8936",
"X c #FF832B",
". c #FFD0AF",
"g c #FEFEFE",
"4 c #7F7F7F",
/* pixels */
"                                ",
"                                ",
"    .XoX.                       ",
"   O+@@@+O                      ",
"   #@@@@@#                      ",
"   $@@@@@$                      ",
"   %@@@@@%                      ",
"   &@@@@@&                      ",
"   *=@@@=*       -;::;-         ",
"    >,<,>       12333321        ",
"     4564444444473333338        ",
"     4555555555593333330        ",
"     4564444444473333338        ",
"     454        12333321        ",
"     454         -;::;-         ",
"     454                        ",
"     454                        ",
"     454                        ",
"     454                        ",
"     454                        ",
"     454                        ",
"     454               qwerq    ",
"     454              tyuuuip   ",
"     454              auuuuus   ",
"     45555555555555555duuuuufg  ",
"     45555555555555555huuuuujg  ",
"                      kuuuuul   ",
"                      zxuuucp   ",
"                       qvbnm    ",
"                                ",
"                                ",
"                                "
};

