/* XPM */
static const char *dep3_48x48_xpm[] = {
/* columns rows colors chars-per-pixel */
"48 48 188 2",
"'  c Black",
"O  c #FF7411",
"i  c #FF7412",
"f. c #66A54B",
"u  c #FF6E07",
"y  c #FFBE90",
"c. c #277F01",
"x  c #FF6B02",
"T. c #99C387",
"{  c #D3B6B6",
"w  c #FFB886",
"Q. c #3D8C1B",
"F. c #080808",
"*. c #562E2E",
"4. c #FF2222",
"z. c #539935",
"   c None",
";. c #FFC7C7",
"v  c #FFAF77",
")  c #FF8F8F",
"V. c #86B771",
"7. c #FFFCFC",
"8. c #FFC4C4",
"q  c #FFF9F5",
"C. c #F8FBF7",
"_  c #FFF9F9",
"5. c #FF1919",
"[  c #CBCBCB",
"R  c #FFF3EB",
"O. c #FFBEBE",
"g. c #84B76F",
"b. c #288002",
"`. c #288003",
"y. c #FF8383",
"&  c #FF9D58",
"F  c #FB6800",
"}. c #95C083",
"$. c #FFB8B8",
"!. c #C8DEBE",
"0. c #FF1010",
"l  c #FFE7D6",
"g  c #FF974D",
"I. c #8EBC7A",
"P. c #237600",
" X c #549A36",
"#  c #FFDEC7",
"E  c #71533D",
"1. c #FFE7E7",
"a. c #F4F8F2",
"n. c #30850B",
"U  c #FF0404",
"p. c #FFE1E1",
",. c #FF0101",
"z  c #FF822A",
"M. c #EDF4EA",
"+  c #FF7C1E",
"Y  c #FF6B6B",
"H  c #F8812C",
"j  c #FFC9A3",
" . c #FFD5D5",
"d. c #72AC59",
".X c #72AC5A",
"h  c #FF700A",
"D  c #EE6D11",
"9  c #FF700B",
"c  c #FF700C",
"*  c #FF6D05",
"=  c #FF6A00",
"e  c #FF6A01",
"Q  c #401A00",
"~. c #D8E8D2",
"B. c #4E972F",
"^  c #FF9494",
"k  c #FFFEFD",
"3  c #FFFEFE",
"H. c #246E04",
"<. c #FF5656",
"7  c #FFFBF9",
"~  c #FFFBFB",
"]. c #E7F1E3",
"t  c #FFF8F3",
"p  c #FFF8F4",
"-. c #FF1B1B",
":. c #B7B7B7",
"b  c #FFF5EF",
"X. c #F20000",
"G. c #0B0B0B",
"N. c #DBE9D4",
"N  c #FF1818",
"%  c #FFF2EA",
"E. c #F3F3F3",
"@  c #FF9F5A",
"`  c #474747",
"B  c #FF1515",
"3. c #FFBABA",
"u. c #FF8282",
"=. c #EE0C0C",
"]  c #929292",
"6. c #FFB7B7",
"V  c #FF4747",
"/  c #FF0F0F",
"d  c #FF964C",
"{. c #EAF2E6",
"|. c #60A144",
"D. c #CDE1C5",
"o. c #FF0C0C",
"v. c #267F00",
"K  c #FFE9E9",
"A  c #FFE0CB",
"P  c #FF0909",
"4  c #FFDDC5",
"r. c #FFE6E6",
"l. c #C6DDBC",
"m  c #FFABAB",
"q. c #FF0303",
"a  c #FFD4B6",
"5  c #FF8127",
"I  c #FF0000",
"t. c #FFA5A5",
"s  c #FF7B1D",
"0  c #FF7B1E",
"^. c #4B952C",
"C  c #FFA2A2",
"+. c #320000",
";  c #FFC8A1",
"w. c #FF2F2F",
"8  c #FFC297",
"X  c #FFC298",
"A. c #278001",
"!  c #C7AF9D",
"r  c #FF6C04",
"J  c #FFBC8E",
"<  c #FF6C05",
"W  c #451D00",
"@. c #FB0000",
"j. c #FAFCF9",
"). c #BBD6AF",
">. c #FF5B5B",
",  c #FFB37D",
".. c #2E0000",
">  c #FFFDFB",
"_. c #479227",
"2. c #FFFDFD",
"oX c #F3F8F1",
"x. c #2A8105",
":  c #FFFAF6",
"$  c #FFFAF8",
"K. c #9CC58B",
"6  c #FFA463",
"S. c #408E1F",
"f  c #FFF4ED",
"S  c #FFA15E",
".  c #FFF1E8",
"[. c #FDFDFC",
"&. c #333333",
"n  c #FFF1F1",
"s. c #A6CA96",
"e. c #FFB9B9",
"M  c #FF4949",
"'. c #6CA852",
"Z  c #FFEEEE",
"Y. c #206D00",
"k. c #FBFDFB",
"XX c #BCD7B1",
"/. c #82B56C",
"R. c #F6F6F6",
"(  c #FF0B0B",
"2  c #FFDFC8",
"o  c #FF8F3F",
"T  c #FFE8E8",
"L  c #FF7878",
"J. c #2B8206",
"m. c #7BB164",
"h. c #CBE0C2",
"G  c #F26500",
"#. c #FF0202",
"Z. c #91BE7D",
"%. c #252525",
"}  c #FA3333",
"U. c #FEFEFD",
"1  c #FF8026",
"L. c #FEFEFE",
"9. c #FF3737",
"i. c #FFA4A4",
"W. c #85B670",
"|  c #FF3434",
"-  c #FF7A1C",
"(. c #F7FAF6",
/* pixels */
"                                                                                                ",
"                                                                                                ",
"                                                                                                ",
"            . X o O + @ # $                                                                     ",
"          % & * = = = = - ; :                                                                   ",
"        > , < = = = = = = 1 2 3                                                                 ",
"        4 5 = = = = = = = = 6 7                                                                 ",
"        8 9 = = = = = = = = 0 q                                                                 ",
"        w e = = = = = = = = r t                                                                 ",
"        y u = = = = = = = = i p                                                                 ",
"        a s = = = = = = = = d $                                                                 ",
"        f g e = = = = = = h j k                                                                 ",
"        3 l z x = = = = c v b 3                     n m M N B V C Z                             ",
"            A S D F G H J f                       K L P I I I I U Y T                           ",
"            k R E W Q ! 7                       ~ ^ / I I I I I I ( ) _                         ",
"                ` ' ' ] [ [ [ [ [ [ [ [ [ [ [ [ { } I I I I I I I I |  .                        ",
"                ` ' ' ' ' ' ' ' ' ' ' ' ' ' ' ' ..X.I I I I I I I I o.O.                        ",
"                ` ' ' ' ' ' ' ' ' ' ' ' ' ' ' ' +.@.I I I I I I I I #.$.                        ",
"                ` ' ' %.&.&.&.&.&.&.&.&.&.&.&.&.*.=.I I I I I I I I -.;.                        ",
"                ` ' ' :.                        Z >.,.I I I I I I ,.<.1.                        ",
"                ` ' ' :.                        2.3.4.I I I I I I 5.6.7.                        ",
"                ` ' ' :.                          7.8.9.0.q.#.0.w.e.7.                          ",
"                ` ' ' :.                              r.t.y.u.i.p.3                             ",
"                ` ' ' :.                                                                        ",
"                ` ' ' :.                                                                        ",
"                ` ' ' :.                                                                        ",
"                ` ' ' :.                                                                        ",
"                ` ' ' :.                                                                        ",
"                ` ' ' :.                                                                        ",
"                ` ' ' :.                                                                        ",
"                ` ' ' :.                                                                        ",
"                ` ' ' :.                                                                        ",
"                ` ' ' :.                                              a.s.d.f.g.h.j.            ",
"                ` ' ' :.                                          k.l.z.x.c.v.b.n.m.M.          ",
"                ` ' ' :.                                          N.B.v.v.v.v.v.v.v.V.C.        ",
"                ` ' ' :.                                          Z.A.v.v.v.v.v.v.v.S.D.        ",
"                ` ' ' F.G.G.G.G.G.G.G.G.G.G.G.G.G.G.G.G.G.G.G.G.G.H.v.v.v.v.v.v.v.v.J.K.L.      ",
"                ` ' ' ' ' ' ' ' ' ' ' ' ' ' ' ' ' ' ' ' ' ' ' ' ' P.v.v.v.v.v.v.v.v.v.I.U.      ",
"                ` ' ' ' ' ' ' ' ' ' ' ' ' ' ' ' ' ' ' ' ' ' ' ' ' Y.v.v.v.v.v.v.v.v.x.T.L.      ",
"                R.E.E.E.E.E.E.E.E.E.E.E.E.E.E.E.E.E.E.E.E.E.E.E.E.W.c.v.v.v.v.v.v.v.Q.!.        ",
"                                                                  ~.^.v.v.v.v.v.v.v./.(.        ",
"                                                                  j.)._.v.v.v.v.`.'.].          ",
"                                                                    [.{.}.|. X.XXXoXL.          ",
"                                                                                                ",
"                                                                                                ",
"                                                                                                ",
"                                                                                                ",
"                                                                                                "
};

