/* XPM */
static const char *dep3_64x64_xpm[] = {
/* columns rows colors chars-per-pixel */
"64 64 70 1",
"8 c Black",
"; c #FF7411",
"O c #FF6E06",
"0 c #FF2B2B",
"% c #FF6E07",
"j c #277F01",
"u c #499429",
": c #FF6B02",
"X c #FFB580",
"  c None",
"b c #257C00",
"5 c #D15700",
"l c #2F840A",
"x c #84B76F",
"S c #B2D1A4",
"z c #E5EFE0",
"D c #ABCD9C",
"3 c #FF0D0D",
"6 c #F96800",
", c #FF7777",
"+ c #FFD8BD",
"C c #30850C",
"o c #FF852E",
"9 c #D40000",
"7 c #FF0101",
"L c #469226",
"K c #298103",
"a c #B3D2A6",
"* c #FF7C1F",
"@ c #FF7615",
"G c #ACCE9D",
"k c #ACCE9E",
"n c #FCFDFB",
"< c #FF2A2A",
"# c #FF6A00",
"s c #31860D",
"h c #B4D3A7",
"y c #2A8205",
"p c #E7F1E3",
"B c #84B66E",
"w c #EAF2E6",
"M c #439022",
"- c #FF9041",
"d c #267F00",
"1 c #FF0606",
"e c #8CBB78",
"4 c #FF0000",
"2 c #FFA5A5",
"r c #4B952B",
"Z c #2E8409",
"= c #FFC296",
"v c #449123",
"F c #B1D1A3",
"A c #E4EFDF",
"P c #86B871",
"c c #1F6900",
"& c #FFFAF6",
"q c #F90000",
"f c #2F850B",
". c #FFF4ED",
"H c #89B974",
"m c #206A00",
"J c #489328",
"$ c #FFDCC3",
"t c #2B8206",
"> c #FFE5E5",
"V c #E8F1E4",
"g c #AECFA0",
"i c #8ABA75",
"N c #8ABA76",
/* pixels */
"                                                                ",
"                                                                ",
"                                                                ",
"                                                                ",
"         .XoOOoX.                                               ",
"        +@######@+                                              ",
"       $%########%$                                             ",
"      &*##########*&                                            ",
"      =############=                                            ",
"      -############-                                            ",
"      ;############;                                            ",
"      :############:                                            ",
"      ;############;                                            ",
"      -############-                                            ",
"      =############=                                            ",
"      &*##########*&                                            ",
"       $%########%$                 >,<11<,>                    ",
"        +@######@+                 2344444432                   ",
"         .X5665X.                 274444444472                  ",
"           8888                  >344444444443>                 ",
"           8888                  ,444444444444,                 ",
"           888888888888888888888894444444444440                 ",
"           8888888888888888888888q4444444444441                 ",
"           8888888888888888888888q4444444444441                 ",
"           888888888888888888888894444444444440                 ",
"           8888                  ,444444444444,                 ",
"           8888                  >344444444443>                 ",
"           8888                   274444444472                  ",
"           8888                    2344444432                   ",
"           8888                     >,<11<,>                    ",
"           8888                                                 ",
"           8888                                                 ",
"           8888                                                 ",
"           8888                                                 ",
"           8888                                                 ",
"           8888                                                 ",
"           8888                                                 ",
"           8888                                                 ",
"           8888                                                 ",
"           8888                                                 ",
"           8888                                                 ",
"           8888                                                 ",
"           8888                                                 ",
"           8888                                wertyuip         ",
"           8888                               asddddddfg        ",
"           8888                              hjddddddddjk       ",
"           8888                             wsddddddddddlz      ",
"           8888                             eddddddddddddx      ",
"           888888888888888888888888888888888cddddddddddddv      ",
"           888888888888888888888888888888888bddddddddddddjn     ",
"           888888888888888888888888888888888bddddddddddddjn     ",
"           888888888888888888888888888888888mddddddddddddM      ",
"                                            NddddddddddddB      ",
"                                            VCddddddddddZA      ",
"                                             SjdddddddddD       ",
"                                              FCddddddZG        ",
"                                               pHJKKLPz         ",
"                                                                ",
"                                                                ",
"                                                                ",
"                                                                ",
"                                                                ",
"                                                                ",
"                                                                "
};

